<?xml version="1.0" standalone="no"?>
<!DOCTYPE svg PUBLIC "-//W3C//DTD SVG 20010904//EN"
 "http://www.w3.org/TR/2001/REC-SVG-20010904/DTD/svg10.dtd">
<svg version="1.0" xmlns="http://www.w3.org/2000/svg"
 width="522.000000pt" height="322.000000pt" viewBox="0 0 522.000000 322.000000"
 preserveAspectRatio="xMidYMid meet">

<g transform="translate(0.000000,322.000000) scale(0.100000,-0.100000)"
fill="#000000" stroke="none">
<path d="M360 3214 c8 -2 109 -19 225 -38 207 -35 213 -35 380 -26 l170 8
-174 -2 c-115 -2 -200 1 -250 10 -217 39 -309 54 -336 53 -16 -1 -23 -3 -15
-5z"/>
<path d="M2493 3213 c37 -2 96 -2 130 0 34 2 4 3 -68 3 -71 0 -99 -1 -62 -3z"/>
<path d="M2192 3203 c37 -2 100 -2 140 0 40 1 10 3 -67 3 -77 0 -110 -1 -73
-3z"/>
<path d="M4815 3185 c-214 -12 -599 -30 -855 -39 -256 -10 -472 -19 -480 -20
-33 -7 188 -5 410 4 129 5 354 14 500 20 700 27 830 35 830 51 0 5 -3 8 -7 8
-5 -1 -183 -12 -398 -24z"/>
<path d="M1670 3189 c-96 -5 -184 -10 -195 -12 -40 -8 117 -5 360 7 175 9 214
13 130 13 -66 0 -199 -4 -295 -8z"/>
<path d="M1177 3163 c18 -2 50 -2 70 0 21 2 7 4 -32 4 -38 0 -55 -2 -38 -4z"/>
<path d="M6 3142 c5 -5 108 -23 229 -42 121 -18 285 -43 365 -56 129 -21 213
-30 185 -18 -9 3 -771 124 -784 124 -3 0 -1 -4 5 -8z"/>
<path d="M3233 3113 c37 -2 96 -2 130 0 34 2 4 3 -68 3 -71 0 -99 -1 -62 -3z"/>
<path d="M2700 3099 c-102 -4 -210 -10 -240 -12 -76 -6 340 4 530 13 l155 7
-130 0 c-71 0 -213 -4 -315 -8z"/>
<path d="M2172 3073 c37 -2 100 -2 140 0 40 1 10 3 -67 3 -77 0 -110 -1 -73
-3z"/>
<path d="M1658 3063 c-65 -2 -118 -7 -118 -11 0 -4 33 -6 73 -4 453 20 432 19
292 18 -71 0 -183 -2 -247 -3z"/>
<path d="M5160 3064 c-8 -2 -170 -10 -360 -18 -512 -23 -557 -25 -905 -36
-176 -6 -331 -13 -345 -15 -37 -5 394 4 700 15 146 6 389 15 540 20 331 12
430 19 430 31 0 9 -29 10 -60 3z"/>
<path d="M1175 3040 l-120 -6 125 -1 c69 -1 136 3 150 7 30 9 35 9 -155 0z"/>
<path d="M858 3023 c34 -2 90 -2 125 0 34 2 6 3 -63 3 -69 0 -97 -1 -62 -3z"/>
<path d="M15 3000 c11 -5 126 -23 255 -40 129 -17 296 -40 371 -50 79 -12 181
-19 240 -18 l104 1 -130 7 c-71 4 -177 14 -235 23 -148 23 -609 87 -618 86 -4
0 2 -4 13 -9z"/>
<path d="M3312 2983 c37 -2 100 -2 140 0 40 1 10 3 -67 3 -77 0 -110 -1 -73
-3z"/>
<path d="M2983 2973 c37 -2 97 -2 135 0 37 2 6 3 -68 3 -74 0 -105 -1 -67 -3z"/>
<path d="M2575 2963 c-38 -2 -162 -8 -275 -12 -164 -6 -180 -8 -80 -8 69 -1
253 5 410 11 183 8 236 13 150 13 -74 -1 -166 -2 -205 -4z"/>
<path d="M1818 2933 c34 -2 90 -2 125 0 34 2 6 3 -63 3 -69 0 -97 -1 -62 -3z"/>
<path d="M1638 2923 c18 -2 45 -2 60 0 15 2 0 4 -33 4 -33 0 -45 -2 -27 -4z"/>
<path d="M5100 2924 c-21 -4 -426 -20 -1270 -50 -413 -14 -552 -21 -465 -22
89 -2 294 4 1140 33 584 19 715 26 715 36 0 8 -87 11 -120 3z"/>
<path d="M1105 2910 l-120 -6 125 -1 c69 0 154 3 190 7 l65 7 -70 -1 c-38 0
-124 -3 -190 -6z"/>
<path d="M3 2864 c6 -6 14 -7 446 -59 161 -19 305 -34 320 -34 33 2 -38 12
-254 39 -570 68 -521 63 -512 54z"/>
<path d="M2465 2831 c-242 -9 -388 -17 -325 -18 63 -2 329 6 590 16 261 10
408 18 325 18 -82 0 -348 -7 -590 -16z"/>
<path d="M1758 2803 c39 -2 105 -2 145 0 39 1 7 3 -73 3 -80 0 -112 -2 -72 -3z"/>
<path d="M5075 2789 c-71 -4 -409 -17 -750 -29 -949 -32 -1068 -37 -935 -38
63 -1 234 3 380 8 146 5 522 16 835 25 314 9 580 18 593 21 12 2 22 9 22 14 0
6 -3 9 -7 9 -5 -1 -66 -5 -138 -10z"/>
<path d="M965 2780 l-130 -6 130 -1 c72 0 191 3 265 6 l135 8 -135 -1 c-74 0
-193 -3 -265 -6z"/>
<path d="M808 2763 c7 -3 16 -2 19 1 4 3 -2 6 -13 5 -11 0 -14 -3 -6 -6z"/>
<path d="M1 2726 c4 -4 190 -24 654 -72 157 -16 301 -15 603 2 198 12 93 14
-174 4 -290 -12 -263 -13 -899 55 -143 15 -192 18 -184 11z"/>
<path d="M2953 2713 c48 -2 125 -2 170 0 45 1 6 3 -88 3 -93 0 -130 -2 -82 -3z"/>
<path d="M2318 2699 c-135 -5 -279 -10 -320 -12 -40 -2 58 -2 217 1 160 2 369
8 465 12 l175 7 -145 0 c-80 0 -256 -4 -392 -8z"/>
<path d="M1688 2673 c39 -2 105 -2 145 0 39 1 7 3 -73 3 -80 0 -112 -2 -72 -3z"/>
<path d="M4990 2650 c-85 -4 -405 -15 -710 -25 -305 -9 -649 -20 -765 -25
-208 -8 -207 -8 70 -4 276 4 1126 28 1463 40 94 3 172 10 172 15 0 5 -17 8
-37 7 -21 0 -108 -4 -193 -8z"/>
<path d="M175 2570 c99 -10 230 -21 290 -24 l110 -5 -135 14 c-213 23 -362 35
-405 34 -22 -1 41 -9 140 -19z"/>
<path d="M2993 2583 c42 -2 112 -2 155 0 42 1 7 3 -78 3 -85 0 -120 -2 -77 -3z"/>
<path d="M2245 2569 c-148 -5 -299 -10 -335 -12 -99 -6 509 4 725 13 l190 7
-155 0 c-85 0 -276 -4 -425 -8z"/>
<path d="M1638 2543 c28 -2 76 -2 105 0 28 2 5 3 -53 3 -58 0 -81 -1 -52 -3z"/>
<path d="M690 2525 c99 -9 433 -9 405 0 -5 2 -125 5 -265 7 -228 3 -243 3
-140 -7z"/>
<path d="M1173 2533 c31 -2 83 -2 115 0 31 2 5 3 -58 3 -63 0 -89 -1 -57 -3z"/>
<path d="M4855 2519 c-169 -7 -1293 -37 -1545 -41 -87 -2 -128 2 -170 16 -78
25 -237 26 -373 2 -66 -12 -103 -23 -95 -28 7 -4 9 -8 3 -8 -5 0 -10 -18 -11
-40 0 -21 3 -37 8 -34 4 3 8 12 8 20 0 8 5 14 11 14 6 0 8 -7 5 -16 -3 -9 -6
-22 -6 -30 0 -9 -4 -12 -10 -9 -5 3 -10 -1 -10 -9 0 -9 -1 -17 -2 -18 -2 -1
-111 -4 -243 -8 l-240 -6 248 -2 c168 -1 247 1 247 9 0 5 5 7 10 4 6 -4 4 -12
-5 -21 -18 -19 -19 -34 -2 -34 8 0 7 -4 -3 -10 -13 -8 -13 -11 -1 -19 8 -5 11
-16 8 -26 -4 -9 -3 -14 3 -10 6 3 10 1 10 -6 0 -7 2 -10 5 -7 3 3 1 17 -5 32
-8 21 -7 28 6 33 13 5 13 7 2 15 -8 5 1 8 27 6 27 -2 41 -8 43 -19 2 -13 -3
-15 -23 -12 -31 7 -34 -14 -3 -26 l23 -8 -23 -7 c-15 -5 -21 -13 -18 -24 2 -9
7 -46 10 -82 4 -36 9 -86 11 -112 l5 -48 -153 0 c-254 0 -842 -12 -847 -18 -3
-2 226 -1 508 3 l512 7 0 -21 c0 -17 6 -21 29 -21 17 0 33 5 36 10 3 6 -1 10
-9 10 -12 0 -13 5 -4 31 14 42 6 385 -10 401 -7 7 -12 25 -12 40 0 22 -5 28
-21 28 -15 0 -19 -5 -15 -15 7 -19 -11 -20 -29 -1 -12 12 -12 15 1 20 9 3 25
7 37 7 12 1 4 5 -18 9 -37 7 -38 7 -8 9 17 0 37 3 45 6 7 3 18 -5 23 -17 6
-13 17 -22 24 -20 7 1 10 -2 6 -8 -5 -8 -11 -7 -21 1 -12 10 -13 9 -8 -5 3 -9
11 -16 16 -16 6 0 8 -9 5 -20 -3 -11 -2 -20 1 -20 4 0 7 -15 7 -32 1 -86 16
-259 27 -306 9 -42 9 -58 0 -73 -7 -10 -9 -19 -5 -20 5 0 16 -2 26 -4 16 -3
17 11 17 191 l0 194 50 0 c35 0 52 5 58 17 9 14 41 18 253 25 134 4 289 9 344
11 55 2 -57 3 -250 1 -326 -3 -345 -2 -280 11 39 8 82 20 97 26 27 11 44 41
34 58 -8 13 126 19 654 31 250 6 617 15 815 20 198 6 397 10 443 10 48 0 82 4
82 10 0 11 -89 11 -365 -1z m-1843 -37 c5 -5 8 -25 6 -43 -3 -34 -3 -34 -60
-37 l-57 -3 -10 38 c-6 21 -11 41 -11 45 0 18 114 18 132 0z m-294 -37 c-3 -3
-9 2 -12 12 -6 14 -5 15 5 6 7 -7 10 -15 7 -18z m49 19 c-3 -3 -12 -4 -19 -1
-8 3 -5 6 6 6 11 1 17 -2 13 -5z m407 -25 c10 -9 -18 -22 -72 -34 -24 -5 -33
-3 -38 9 -13 33 2 44 53 39 26 -3 52 -9 57 -14z m-443 -112 c-16 -16 -26 0
-10 19 9 11 15 12 17 4 2 -6 -1 -17 -7 -23z"/>
<path d="M0 2460 c0 -5 23 -10 53 -10 28 0 167 -9 307 -20 140 -11 278 -19
305 -19 56 2 -174 22 -430 38 -93 6 -185 14 -202 17 -20 3 -33 1 -33 -6z"/>
<path d="M2628 2453 c7 -3 16 -2 19 1 4 3 -2 6 -13 5 -11 0 -14 -3 -6 -6z"/>
<path d="M2193 2443 c54 -2 139 -2 190 0 51 1 7 3 -98 3 -104 0 -146 -2 -92
-3z"/>
<path d="M1670 2430 c-41 -4 35 -5 170 -2 135 3 247 6 249 8 7 6 -338 1 -419
-6z"/>
<path d="M1158 2413 c34 -2 88 -2 120 0 31 2 3 3 -63 3 -66 0 -92 -1 -57 -3z"/>
<path d="M788 2403 c39 -2 105 -2 145 0 39 1 7 3 -73 3 -80 0 -112 -2 -72 -3z"/>
<path d="M5165 2404 c-22 -2 -269 -10 -550 -19 -280 -8 -537 -16 -569 -18 -56
-2 -62 -4 -116 -55 -42 -38 -63 -68 -79 -108 -24 -63 -29 -104 -8 -67 59 104
122 195 145 207 16 9 16 8 1 -10 -25 -28 -53 -88 -38 -78 9 5 10 2 6 -10 -4
-10 -3 -15 3 -11 6 4 9 14 8 23 -2 10 4 17 14 17 9 0 26 10 38 23 11 12 23 22
25 22 2 0 -16 -39 -41 -86 -24 -47 -44 -92 -44 -99 0 -17 -39 -104 -40 -88 0
15 37 120 51 146 6 11 8 21 5 24 -10 10 -77 -151 -73 -175 6 -31 -11 -39 -19
-7 -3 14 -10 25 -15 25 -5 0 -10 15 -10 33 -1 17 -3 24 -6 15 -2 -10 -9 -18
-14 -18 -6 0 -7 5 -4 10 3 6 1 10 -4 10 -6 0 -11 -6 -11 -14 0 -8 -13 -27 -30
-43 -34 -32 -39 -49 -11 -34 24 13 36 -11 21 -40 -8 -15 -7 -19 4 -19 10 0 18
-14 22 -37 9 -49 14 -58 25 -42 16 25 10 -13 -6 -45 -18 -34 -19 -63 -4 -68 7
-2 9 -13 4 -27 -4 -14 -12 -20 -22 -17 -12 5 -13 0 -8 -27 4 -17 9 -34 11 -36
1 -2 28 1 58 6 50 9 58 8 73 -10 40 -44 100 -59 124 -31 21 25 89 56 117 53
34 -4 60 10 42 21 -7 4 191 9 441 10 250 1 474 6 499 10 25 5 -174 6 -442 3
-269 -3 -488 -4 -488 -1 0 17 24 68 31 68 6 0 20 11 33 23 l24 24 438 7 c241
4 440 9 443 11 2 3 2 7 0 9 -2 2 -197 -1 -432 -6 -236 -6 -431 -7 -434 -4 -4
3 10 30 30 59 l37 54 173 6 c94 4 269 7 387 7 130 0 221 4 230 11 15 10 -537
5 -703 -7 -59 -4 -78 -2 -81 8 -11 42 -24 103 -22 105 1 2 184 7 406 13 223 6
406 13 409 16 11 10 -18 11 -259 3 -140 -4 -325 -8 -410 -9 l-154 -2 -30 44
c-17 23 -37 48 -45 54 -19 14 112 21 567 30 198 4 332 10 332 16 0 6 -69 7
-182 3 -584 -21 -752 -22 -787 -8 -19 8 -50 15 -69 15 -18 0 -35 5 -36 12 -2
6 -8 26 -14 44 l-10 32 39 0 c82 0 800 20 927 26 72 3 132 10 132 15 0 5 -3 8
-7 7 -5 -1 -26 -3 -48 -4z m-1110 -153 c-3 -12 -10 -19 -15 -16 -5 3 -11 -1
-13 -7 -3 -7 -6 -8 -6 -3 -1 12 32 56 37 50 2 -2 1 -13 -3 -24z m-75 -138
c-11 -17 -11 -17 -6 0 3 10 7 26 7 35 1 15 2 15 6 0 2 -10 -1 -25 -7 -35z
m100 -34 c0 -6 -4 -7 -10 -4 -5 3 -10 11 -10 16 0 6 5 7 10 4 6 -3 10 -11 10
-16z m-67 -4 c-3 -9 -8 -14 -10 -11 -3 3 -2 9 2 15 9 16 15 13 8 -4z m-42 -38
c-10 -9 -11 -8 -5 6 3 10 9 15 12 12 3 -3 0 -11 -7 -18z m-10 -106 c7 11 9 9
9 -8 0 -13 -4 -23 -8 -23 -5 0 -15 -16 -22 -35 -8 -20 -20 -41 -27 -46 -8 -7
-6 1 4 22 9 18 19 55 22 83 4 38 6 43 9 22 3 -22 6 -26 13 -15z m168 3 c2 -2
-4 -4 -14 -4 -14 0 -15 -3 -6 -14 10 -11 6 -20 -16 -40 -15 -14 -23 -26 -17
-26 13 0 91 54 117 81 10 11 23 19 30 19 15 0 87 -65 87 -78 0 -13 -40 -22
-67 -16 -22 6 -26 0 -35 -61 -2 -11 -8 -20 -13 -20 -6 -1 -32 -15 -59 -33 -28
-18 -59 -32 -70 -32 -33 0 -66 11 -66 22 0 6 -10 24 -22 41 -15 21 -18 32 -10
35 7 2 10 8 6 13 -3 5 1 9 9 9 7 0 26 14 41 31 26 29 27 31 9 44 -10 7 -14 17
-10 21 4 5 12 2 16 -5 10 -16 31 -6 31 15 0 11 7 13 28 8 15 -4 29 -8 31 -10z
m-229 -7 c0 -7 -7 -22 -15 -33 -16 -20 -16 -18 0 31 5 18 15 20 15 2z m-42
-122 c-6 -14 -13 -23 -15 -21 -5 5 15 46 22 46 3 0 -1 -11 -7 -25z"/>
<path d="M3803 2363 c9 -2 25 -2 35 0 9 3 1 5 -18 5 -19 0 -27 -2 -17 -5z"/>
<path d="M0 2332 c0 -4 116 -14 258 -21 141 -6 322 -16 402 -22 80 -5 257 -6
394 -2 l249 6 -7 -54 c-4 -29 -9 -55 -10 -57 -14 -13 -547 -12 -885 2 -216 9
-396 15 -398 12 -15 -15 750 -40 1040 -34 130 3 237 1 237 -4 0 -4 -15 -8 -32
-8 -44 -1 -106 -30 -145 -68 l-31 -31 -153 -2 c-85 -1 -327 0 -539 3 -291 5
-332 4 -170 -2 118 -5 360 -10 537 -12 295 -3 323 -4 323 -20 0 -9 11 -25 25
-36 l24 -19 -87 -12 c-49 -6 -114 -11 -145 -11 -31 0 -59 -5 -63 -12 -5 -8
-111 -10 -416 -5 -257 4 -408 3 -408 -3 0 -6 157 -10 411 -10 l411 0 -4 -40
c-3 -30 0 -40 11 -40 7 0 70 18 140 39 82 26 149 41 191 42 l65 2 -5 -69 c-2
-38 -5 -86 -5 -106 0 -21 -3 -38 -7 -38 -5 0 -8 -6 -8 -13 0 -9 -16 -12 -57
-11 -34 1 -61 -3 -65 -10 -5 -7 -8 -5 -8 5 0 12 -7 15 -26 11 -18 -3 -24 -9
-20 -21 5 -14 4 -14 -7 1 -8 9 -29 19 -48 22 -19 3 -28 3 -22 0 7 -3 13 -10
13 -15 0 -6 -4 -7 -10 -4 -5 3 -10 1 -10 -4 0 -6 -5 -11 -11 -11 -6 0 -9 9 -6
20 3 11 1 18 -4 14 -5 -3 -9 -13 -9 -24 0 -15 7 -18 39 -17 22 1 39 4 39 7 -1
18 4 19 19 5 16 -16 17 -16 30 1 7 10 13 13 13 8 0 -6 11 -10 25 -10 14 0 25
4 25 8 0 4 5 8 11 8 5 0 7 -5 4 -10 -8 -13 18 -8 27 5 5 6 8 5 8 -2 0 -7 6
-13 14 -13 8 0 17 6 19 13 4 8 6 7 7 -3 0 -10 6 -6 16 10 12 21 14 22 12 5 -2
-11 5 -29 15 -40 10 -11 14 -21 10 -22 -4 -1 -98 -4 -207 -5 l-200 -3 -20 -62
c-11 -35 -17 -65 -14 -69 4 -3 67 -8 142 -11 145 -6 320 9 395 34 59 20 101 4
101 -38 l0 -29 -247 -1 c-137 -1 -286 -5 -333 -9 -56 -5 27 -7 248 -6 l332 1
0 -52 0 -53 -132 -1 c-73 0 -220 -2 -325 -5 l-193 -5 0 35 c0 19 -5 38 -11 42
-14 9 -6 73 21 163 18 57 19 78 12 132 -5 35 -10 50 -11 33 l-1 -31 -182 -6
c-99 -4 -256 -7 -347 -8 -91 -1 -191 -5 -221 -9 -56 -9 173 -6 558 6 192 6
192 6 192 -15 0 -21 -3 -21 -67 -15 -74 8 -93 -4 -93 -57 l0 -26 -112 -6 c-62
-4 -206 -10 -320 -13 -115 -4 -208 -11 -208 -16 0 -5 28 -6 62 -3 87 7 570 26
574 22 2 -1 0 -28 -3 -60 -6 -57 -6 -57 -39 -57 -83 0 -589 -31 -594 -37 -5
-6 71 -3 432 18 105 6 192 9 194 7 2 -2 1 -27 -3 -55 -7 -63 20 -56 -333 -79
-146 -9 -272 -21 -280 -26 -10 -6 6 -7 45 -4 176 15 556 39 560 35 2 -3 2 -28
-2 -56 l-6 -51 -106 -11 c-58 -6 -194 -18 -301 -27 -107 -9 -197 -18 -199 -20
-14 -12 20 -12 148 2 213 22 232 13 31 -16 l-175 -25 -1 -187 -2 -187 37 -4
36 -4 -37 -1 c-33 -2 -38 -5 -38 -26 0 -13 6 -26 13 -28 22 -8 62 7 62 22 0 9
10 15 25 16 21 1 21 0 3 -3 -14 -3 -20 -9 -16 -19 3 -8 -3 -16 -13 -20 -11 -3
-27 -9 -36 -14 -11 -6 -18 -5 -21 3 -2 7 -8 9 -12 5 -17 -16 10 -27 71 -27 53
0 63 3 50 12 -19 15 -9 32 24 42 22 7 23 6 11 -9 -7 -9 -10 -16 -5 -17 26 -3
70 4 75 13 3 5 12 8 20 7 8 -2 28 4 45 13 17 10 41 14 52 11 16 -4 22 -1 22
11 0 9 7 16 15 16 10 0 12 6 8 18 -6 15 -5 15 10 3 10 -8 20 -11 23 -8 3 3 -6
12 -21 19 -26 14 -26 14 -7 36 11 12 24 22 31 22 6 0 11 5 11 11 0 5 5 7 12 3
7 -5 5 -11 -7 -21 -18 -12 -18 -13 -1 -13 13 0 16 -5 11 -19 -4 -13 0 -23 12
-30 16 -10 16 -10 -4 -11 -16 0 -21 -6 -20 -20 2 -27 27 -22 38 7 5 15 4 27
-5 35 -16 16 -10 39 9 32 7 -3 16 -1 20 5 3 7 0 8 -9 5 -9 -3 -16 -1 -16 5 0
6 7 11 16 11 11 0 14 5 10 16 -5 12 -2 15 10 10 10 -4 18 0 21 13 5 21 40 35
49 19 4 -5 19 -8 35 -6 26 4 38 -8 27 -26 -2 -2 6 -13 16 -25 11 -12 14 -21 8
-21 -7 0 -12 -4 -12 -9 0 -13 63 3 68 17 2 7 -6 12 -20 13 -12 0 -17 3 -10 6
6 2 12 10 12 17 0 8 11 11 33 9 24 -3 29 -2 17 6 -12 9 -11 11 8 11 12 0 22
-4 22 -10 0 -5 7 -10 15 -10 8 0 15 5 15 10 0 6 7 10 16 10 8 0 12 -4 9 -10
-4 -6 10 -10 34 -10 30 0 41 4 41 15 0 9 9 15 23 15 21 -1 22 -1 3 -15 -11 -8
-15 -15 -9 -15 7 0 14 4 18 10 3 5 12 7 20 4 8 -4 12 -10 9 -15 -9 -15 13 -10
26 6 11 13 8 15 -14 15 -17 0 -26 5 -26 16 0 14 3 14 16 4 12 -11 18 -11 29 1
13 12 6 14 -53 11 -62 -3 -65 -2 -47 12 19 15 19 15 1 16 -10 0 -25 -8 -31
-17 -12 -16 -13 -15 -12 10 2 20 6 25 19 21 10 -3 28 0 40 7 26 14 87 12 105
-3 7 -5 18 -8 25 -5 8 4 7 6 -4 6 -10 1 -18 5 -18 11 0 12 63 0 72 -14 5 -8 8
-7 8 2 0 6 6 12 14 12 20 0 9 -38 -13 -43 -9 -3 -2 -5 14 -6 46 -1 74 9 68 25
-4 12 -8 12 -21 2 -10 -8 -13 -9 -9 -1 4 6 1 14 -5 16 -7 3 -2 6 13 6 14 1 31
7 38 14 10 10 14 9 22 -6 6 -9 18 -17 27 -18 11 -1 8 -4 -8 -9 -21 -7 -21 -8
-5 -9 31 -1 65 10 59 20 -3 5 -9 7 -13 4 -5 -2 -17 5 -27 16 -19 21 -19 21 0
18 15 -3 19 2 21 26 1 17 7 40 13 52 7 12 12 24 12 26 0 11 -485 3 -492 -7
-14 -19 -28 17 -28 72 l0 53 328 -1 c180 0 335 -1 345 0 14 0 17 11 19 63 l2
62 3 -58 c4 -53 5 -56 24 -47 15 8 19 21 19 60 l0 50 253 -4 c286 -5 352 -12
351 -38 0 -10 -1 -32 -2 -49 l-2 -30 -80 2 c-44 1 -80 6 -80 11 0 5 -5 6 -10
3 -6 -4 -22 0 -35 9 -13 9 -30 16 -37 16 -7 -1 1 -8 17 -17 17 -8 37 -22 46
-29 9 -8 25 -12 35 -8 12 4 15 3 7 -3 -9 -6 -5 -17 16 -39 58 -62 63 -91 26
-146 -35 -52 -31 -70 4 -20 16 22 35 43 41 47 5 3 8 11 5 16 -4 5 7 9 24 9 27
0 30 -4 36 -42 4 -23 9 -62 10 -87 2 -25 6 -70 10 -100 8 -54 8 -54 -16 -48
-13 4 -61 10 -106 13 l-83 7 0 39 c0 36 -1 37 -20 26 -16 -10 -24 -10 -40 0
-11 6 -31 12 -46 12 -14 0 -32 6 -39 14 -8 8 -52 16 -117 20 -144 10 -175 16
-182 35 -3 9 -9 23 -13 31 -5 13 -4 13 10 1 10 -7 17 -9 17 -3 0 5 9 8 20 5
14 -4 20 0 20 11 0 10 -5 13 -17 9 -10 -4 -14 -2 -10 4 4 6 2 13 -4 15 -7 2
-5 9 5 17 11 9 16 10 16 2 0 -6 7 -11 15 -11 8 0 15 4 15 8 0 5 24 5 53 1 28
-4 107 -8 175 -8 101 -1 122 -4 122 -16 0 -8 5 -15 10 -15 14 0 13 7 -6 34
-14 23 -20 24 -142 25 -69 1 -128 4 -131 6 -2 3 51 5 119 5 68 0 121 3 117 6
-3 3 -87 5 -186 4 l-180 -1 -3 55 -3 54 -54 -20 c-73 -28 -161 -112 -161 -154
0 -34 31 -73 60 -75 11 -1 25 -3 30 -4 6 -1 18 -3 28 -4 9 -1 28 -11 41 -22
21 -17 22 -22 10 -34 -13 -13 -18 -11 -42 11 l-27 25 0 -31 c0 -22 -5 -30 -17
-30 -16 -1 -16 -2 -2 -10 9 -5 83 -16 165 -25 214 -22 247 -26 269 -30 19 -4
20 -9 14 -87 -11 -131 -29 -310 -34 -340 -4 -24 -1 -27 19 -26 14 1 22 7 19
14 -2 7 4 21 14 31 11 11 17 25 15 33 -3 7 0 10 7 6 6 -4 11 -1 11 6 0 8 3 9
8 3 4 -5 18 -12 32 -13 14 -2 29 -5 35 -5 27 -5 33 -32 15 -76 -9 -25 -23 -47
-30 -49 -8 -3 -10 0 -5 9 5 8 5 11 0 7 -4 -4 -15 -2 -24 4 -9 7 -6 1 7 -13 12
-14 22 -35 22 -47 0 -26 5 -26 -61 -3 -30 10 -104 24 -165 31 -60 6 -120 13
-134 15 -14 2 -59 4 -101 4 -74 1 -124 19 -106 38 5 4 16 -1 24 -12 12 -15 14
-16 10 -3 -3 9 -1 19 6 21 7 3 -15 5 -48 4 -33 0 -51 -2 -40 -5 24 -5 45 -21
45 -34 0 -9 -45 -6 -56 4 -3 4 -12 4 -20 1 -16 -6 -19 8 -4 23 6 6 -12 9 -53
8 -86 -2 -87 -2 -87 -20 0 -14 -15 -16 -127 -12 -87 3 -128 8 -131 16 -2 7
-10 18 -17 26 -17 16 -9 26 20 26 11 0 26 5 32 11 8 8 13 8 17 0 4 -6 28 -11
54 -10 44 1 45 1 15 9 -18 4 -39 13 -47 19 -8 6 -18 10 -22 9 -5 -2 -11 2 -13
7 -3 6 16 10 45 10 43 0 49 3 52 22 2 12 10 27 18 33 15 13 20 0 5 -16 -5 -5
-12 -18 -15 -29 -5 -18 -1 -21 39 -23 33 -1 47 3 55 16 10 15 10 14 5 -4 -4
-17 0 -23 19 -26 29 -6 43 17 25 38 -10 12 -9 13 5 8 9 -3 16 -1 16 5 0 18
-26 24 -49 11 -14 -7 -21 -7 -21 0 0 16 -31 12 -52 -7 -18 -16 -19 -16 -9 11
14 36 14 38 -6 35 -34 -3 -45 1 -40 15 4 11 1 11 -19 2 -14 -6 -27 -21 -30
-34 -4 -12 -10 -22 -16 -22 -5 0 -6 -4 -3 -10 3 -5 1 -10 -5 -10 -7 0 -9 7 -6
17 4 9 1 20 -6 25 -18 11 -30 10 -23 -2 7 -11 4 -12 -37 -14 -16 -1 -28 3 -28
9 0 5 -4 3 -9 -5 -6 -8 -8 -17 -5 -21 2 -4 -1 -11 -7 -15 -8 -5 -9 -3 -4 7 5
8 4 11 -1 6 -5 -5 -9 -12 -10 -15 -2 -31 -17 -71 -25 -66 -5 3 -9 0 -9 -5 0
-6 -9 -11 -19 -11 -11 0 -23 -4 -26 -10 -3 -5 -17 -10 -31 -10 -19 0 -24 -5
-22 -18 3 -22 -28 -55 -107 -113 -33 -24 -69 -52 -80 -61 -11 -10 -29 -24 -40
-33 l-20 -16 20 9 c166 76 243 120 282 159 28 27 43 50 39 59 -3 8 -2 13 3 10
5 -3 11 2 14 12 10 30 64 116 76 120 20 7 11 -18 -35 -100 -84 -145 -117 -168
-444 -315 l-25 -12 28 0 c15 -1 36 5 47 11 17 11 22 10 30 -2 7 -11 13 -12 32
-3 31 16 88 22 88 10 0 -6 5 -6 13 0 6 5 41 7 77 4 57 -4 61 -5 30 -12 -31 -6
-28 -6 20 -7 37 0 48 2 35 7 -13 5 13 9 69 10 58 1 94 -3 104 -11 12 -10 14
-10 8 0 -5 8 2 12 26 13 18 0 43 2 56 5 14 2 21 0 17 -6 -9 -14 8 -13 23 2 9
9 12 9 12 0 0 -15 66 -16 75 -2 4 6 12 7 18 3 7 -4 28 -8 47 -9 19 -1 59 -5
88 -9 36 -5 52 -4 52 4 0 11 67 11 85 -1 6 -4 33 -2 60 4 32 7 50 7 52 1 3 -7
642 -11 1818 -12 l1815 -2 0 537 0 537 -377 -6 c-207 -4 -508 -7 -669 -7
l-293 0 8 -21 c7 -21 12 -22 165 -20 109 2 162 -1 172 -9 7 -7 20 -10 29 -7 8
4 17 2 20 -3 8 -13 52 -13 77 1 15 8 22 8 28 -1 5 -9 26 -11 64 -8 31 3 56 1
56 -4 0 -4 -21 -8 -47 -9 -27 -1 -57 -2 -68 -3 -11 0 -23 3 -26 7 -3 4 -19 2
-35 -5 -29 -12 -28 -13 24 -16 30 -2 50 -7 47 -13 -4 -5 -2 -9 4 -9 5 0 13 -9
16 -21 5 -16 10 -18 21 -8 11 9 14 8 14 -9 0 -15 -9 -21 -36 -27 -26 -4 -33
-10 -26 -17 7 -7 21 -7 39 -2 52 15 85 11 111 -14 l24 -25 -25 7 c-13 3 -46
-1 -73 -9 -27 -8 -52 -15 -56 -15 -16 0 -7 19 10 23 9 3 0 5 -20 6 -39 1 -52
-14 -20 -22 13 -4 12 -5 -5 -6 -12 0 -25 3 -28 9 -3 6 -13 10 -22 10 -14 0
-14 -2 1 -19 10 -11 25 -22 35 -24 9 -2 5 -2 -9 0 -40 7 -94 3 -104 -7 -7 -7
3 -10 24 -10 28 0 32 -3 20 -11 -12 -9 -12 -10 3 -5 10 3 21 6 23 6 3 0 2 5
-2 11 -5 8 -1 8 13 0 27 -14 97 -3 83 14 -8 9 -2 10 25 1 l35 -11 -22 -18
c-21 -17 -21 -18 -3 -12 24 8 26 8 45 5 23 -2 -20 -18 -53 -19 -19 -1 -26 3
-21 11 5 8 2 9 -10 5 -10 -4 -30 -7 -44 -8 -23 0 -24 -2 -8 -8 18 -7 18 -8 2
-14 -28 -11 -35 -8 -31 13 3 17 1 18 -15 10 -20 -11 -50 -4 -50 12 0 5 -5 6
-10 3 -6 -4 -33 1 -61 10 -43 15 -53 15 -60 4 -9 -16 14 -33 34 -25 7 2 4 5
-5 5 -10 1 -18 6 -18 11 0 16 16 12 41 -10 l24 -19 -25 -1 c-20 0 -22 -2 -10
-10 11 -7 3 -10 -30 -10 -40 -1 -43 -2 -27 -14 21 -16 8 -29 -19 -19 -13 5
-15 3 -9 -7 5 -9 4 -11 -4 -6 -6 4 -9 16 -6 27 5 13 2 19 -10 19 -18 0 -13
-30 17 -100 11 -25 21 -52 22 -59 2 -8 9 -18 17 -22 24 -12 111 -28 184 -35
39 -4 75 -11 82 -16 7 -5 17 -7 23 -3 15 9 30 -4 23 -21 -4 -11 -18 -15 -52
-14 -25 1 -64 1 -86 1 -35 -1 -38 -3 -22 -15 9 -7 17 -16 17 -20 0 -12 -57 -6
-89 10 -18 9 -35 14 -38 11 -2 -3 16 -44 42 -91 41 -76 50 -86 73 -85 90 4
184 -16 330 -69 83 -31 152 -62 152 -68 0 -15 -23 -24 -60 -24 -20 0 -27 -5
-26 -18 1 -14 -6 -17 -44 -14 -25 2 -58 7 -75 12 -16 5 -72 9 -124 9 -174 0
-254 33 -328 134 -20 28 -40 54 -44 57 -3 3 -22 30 -41 60 -20 30 -73 105
-117 165 -45 61 -96 131 -113 158 -28 43 -35 47 -69 47 -22 0 -39 -4 -39 -10
0 -5 8 -7 18 -3 9 3 14 3 11 -1 -10 -11 -69 -16 -69 -6 0 5 8 11 18 13 9 3 -1
5 -23 5 -31 0 -35 -1 -20 -8 22 -9 21 -9 -13 -16 -17 -3 -22 0 -20 13 2 10 7
21 11 24 4 3 -8 6 -27 7 -28 1 -35 -3 -40 -23 -8 -32 -27 -32 -54 0 -27 31
-27 37 -4 33 11 -2 19 2 20 7 1 10 -46 11 -56 1 -3 -3 1 -13 8 -22 12 -13 11
-17 -1 -25 -22 -13 -28 -11 -22 10 3 10 0 22 -6 25 -6 4 -11 3 -11 -2 0 -5
-11 -12 -25 -14 -14 -3 -25 -1 -25 3 0 5 -17 9 -37 9 -36 -1 -37 -2 -19 -15
11 -8 17 -18 13 -21 -4 -4 -13 -1 -21 5 -10 8 -16 9 -21 1 -4 -7 -12 -7 -25 0
-16 8 -18 8 -14 -5 6 -15 17 -19 44 -15 11 1 12 -1 3 -10 -9 -10 -18 -9 -41 3
-23 11 -33 12 -43 3 -9 -8 -11 -7 -6 7 5 14 0 17 -27 17 -19 0 -37 6 -39 13
-4 9 -6 9 -6 0 -1 -7 -6 -13 -12 -13 -5 0 -7 5 -4 10 10 15 -13 12 -41 -7 -19
-12 -22 -18 -12 -25 9 -7 8 -8 -5 -4 -10 3 -23 6 -28 6 -4 0 -6 6 -3 14 7 19
-15 31 -29 17 -9 -9 -8 -14 3 -21 14 -9 12 -11 -19 -14 -22 -2 -25 -24 -4 -29
10 -3 -14 -5 -53 -4 -73 2 -89 11 -35 19 17 2 28 1 25 -4 -3 -4 4 -8 14 -8 11
0 23 7 26 16 9 23 8 26 -11 20 -10 -2 -36 -1 -58 4 -34 7 -30 8 28 6 37 -2 67
2 67 7 0 5 -13 7 -30 3 -17 -3 -29 -2 -25 3 3 5 -13 7 -36 4 -40 -6 -41 -5
-30 16 10 17 9 21 -4 21 -9 0 -13 -4 -10 -10 4 -6 -8 -10 -28 -10 -23 0 -34
-5 -34 -15 0 -8 5 -15 10 -15 6 0 8 -3 4 -6 -10 -11 -46 7 -41 20 3 7 -2 19
-11 26 -8 7 -15 8 -15 2 0 -5 -7 -12 -15 -16 -20 -7 -46 4 -38 17 4 7 0 8 -12
3 -11 -4 -25 0 -38 11 -19 17 -20 17 -9 -3 15 -28 -5 -59 -28 -44 -13 8 -12
10 3 10 18 0 24 16 8 22 -16 5 0 58 18 58 13 0 13 2 2 9 -10 6 -11 20 -6 52
13 81 37 169 47 169 5 0 7 -8 4 -18 -11 -34 68 -43 366 -44 299 -1 407 7 415
28 3 8 12 14 21 14 11 0 9 6 -9 21 l-24 20 103 -3 c82 -2 101 0 97 10 -3 8 -5
16 -5 18 0 2 -52 4 -115 4 -112 0 -115 1 -116 23 -1 16 -3 13 -11 -12 -7 -25
-6 -36 3 -41 31 -20 -43 -31 -249 -39 -257 -10 -407 -4 -423 16 -9 11 -9 12 4
7 14 -5 15 -1 7 25 -6 21 -5 31 3 35 8 3 8 5 -1 5 -7 1 -20 -6 -28 -14 -32
-31 -53 4 -38 63 5 17 11 21 23 16 9 -4 83 -8 166 -10 125 -2 159 1 210 17 34
12 104 23 162 26 92 5 104 4 131 -16 42 -30 129 -29 183 1 34 20 41 21 50 8 8
-12 10 -10 6 10 -7 32 -56 304 -63 348 -6 38 -8 38 -36 12 -12 -11 -29 -20
-39 -20 -18 0 -139 123 -139 143 0 7 -6 20 -14 29 -11 15 -12 11 -11 -30 1
-26 5 -56 10 -67 7 -19 7 -19 -8 0 -8 12 -23 44 -32 73 -10 29 -19 51 -20 50
-7 -9 13 -122 23 -126 13 -4 17 -32 4 -32 -5 0 -16 15 -25 33 -14 25 -16 27
-12 7 4 -14 8 -34 10 -45 2 -11 7 -29 11 -39 5 -13 4 -17 -3 -13 -13 8 -63
108 -64 128 0 8 -5 1 -9 -15 -5 -16 -6 -42 -3 -59 6 -27 4 -30 -15 -25 l-21 6
20 -40 c11 -22 18 -42 15 -45 -2 -3 -14 13 -25 35 -22 44 -30 51 -61 57 -23 4
-24 1 -9 -27 6 -11 8 -22 6 -25 -3 -3 -12 8 -21 24 -8 15 -15 23 -16 17 0 -6
-11 -9 -25 -7 -21 5 -24 2 -22 -23 2 -25 -1 -29 -20 -26 -16 2 -23 -2 -23 -12
0 -9 -6 -17 -12 -17 -7 -1 -22 -3 -34 -4 -19 -2 -21 3 -23 53 -2 77 -11 79
-11 4 0 -40 -4 -62 -11 -62 -8 0 -10 20 -6 66 3 40 1 61 -4 53 -5 -8 -9 -25
-9 -38 0 -13 -3 -21 -6 -18 -4 4 -19 -2 -33 -12 -28 -20 -69 -32 -116 -34 -26
-2 -30 2 -33 27 l-4 30 -18 -40 -18 -39 4 50 c6 91 16 170 26 195 5 14 14 47
19 74 5 28 15 54 22 58 9 7 8 8 -3 6 -8 -1 -27 9 -43 24 -15 14 -48 31 -73 38
-60 17 -222 7 -266 -17 -40 -20 -183 -26 -285 -12 -37 6 -141 12 -231 14 -90
2 -166 5 -168 8 -3 2 0 16 6 31 5 15 10 54 10 86 l0 59 73 4 72 3 -72 2 -73 2
0 78 c0 47 -5 85 -12 95 -8 11 -55 26 -128 42 -112 25 -123 26 -440 23 -290
-3 -816 17 -992 37 -27 3 -48 2 -48 -3z m1258 -299 c-10 -50 -12 -53 -41 -53
l-30 0 19 23 c10 12 23 25 27 28 4 3 7 10 6 15 -2 5 1 20 5 33 14 42 25 7 14
-46z m-124 -24 c20 -12 33 -25 30 -30 -5 -9 -57 22 -69 41 -9 15 0 12 39 -11z
m2136 -469 c0 -5 -2 -10 -4 -10 -3 0 -8 5 -11 10 -3 6 -1 10 4 10 6 0 11 -4
11 -10z m-2553 -48 c7 -4 16 -22 19 -40 6 -31 5 -32 -25 -32 -30 0 -31 2 -31
40 0 40 11 49 37 32z m2402 -76 c-2 -2 -13 8 -23 22 l-19 27 24 -22 c12 -12
21 -24 18 -27z m-1461 -20 c42 -14 120 -38 172 -55 l95 -30 -191 -1 -191 0 -7
46 c-3 25 -3 50 0 55 9 15 40 11 122 -15z m-916 -38 l3 -53 12 35 13 35 -6
-35 c-3 -19 -8 -65 -11 -102 -4 -53 -9 -68 -22 -69 -14 -1 -14 -2 1 -6 10 -3
19 -19 23 -45 8 -47 -2 -58 -53 -58 -24 0 -35 -6 -41 -22 -17 -45 -102 -147
-148 -177 -62 -42 -105 -48 -168 -26 -79 27 -149 63 -190 95 -20 16 -59 40
-86 52 -51 24 -68 45 -22 27 35 -13 90 -46 126 -76 30 -24 53 -31 41 -11 -4 7
-3 8 5 4 6 -4 9 -11 6 -16 -8 -12 145 -70 185 -70 29 1 32 2 17 11 -9 5 -21 8
-25 5 -4 -2 -14 -1 -22 5 -17 10 34 6 62 -6 24 -9 74 23 132 85 38 41 45 54
40 75 -4 15 -2 25 5 25 6 0 11 -5 11 -12 0 -25 24 12 26 40 3 76 4 80 27 87
l22 8 -22 4 c-18 3 -23 11 -23 36 0 62 9 77 46 77 19 0 34 5 34 11 0 8 -12 10
-35 6 l-35 -6 0 49 c0 50 14 69 52 70 13 0 18 -11 20 -52z m698 -123 l0 -55
-319 0 c-355 0 -331 -5 -331 71 l0 39 325 0 325 0 0 -55z m704 -102 c10 -64 8
-70 -24 -75 -27 -4 -32 0 -51 40 -12 24 -28 46 -35 49 -32 12 -10 23 45 23
l58 0 7 -37z m-1534 -14 c0 -23 -8 -24 -40 -2 l-24 17 24 7 c31 7 40 3 40 -22z
m864 -74 c-4 -8 -11 -15 -16 -15 -6 0 -5 6 2 15 7 8 14 15 16 15 2 0 1 -7 -2
-15z m3459 -2 c-62 -2 -164 -2 -225 0 -62 1 -12 3 112 3 124 0 174 -2 113 -3z
m-3400 -30 c-3 -8 -8 -11 -11 -8 -3 3 -13 -2 -22 -10 -15 -14 -18 -14 -30 0
-10 12 -10 15 4 15 10 0 15 3 13 8 -3 4 8 7 23 8 20 1 27 -3 23 -13z m2807 3
c0 -9 -30 -14 -35 -6 -4 6 3 10 14 10 12 0 21 -2 21 -4z m-2885 -35 c3 -5 2
-12 -3 -15 -5 -3 -9 1 -9 9 0 17 3 19 12 6z m-644 -33 c19 12 20 11 17 -10 -2
-18 -11 -24 -40 -29 -49 -8 -64 2 -49 30 10 18 14 19 31 8 16 -9 24 -9 41 1z
m3729 -2 c0 -11 -19 -15 -25 -6 -3 5 1 10 9 10 9 0 16 -2 16 -4z m-4135 -16
c-3 -5 -16 -10 -28 -9 -20 1 -20 2 3 9 14 4 26 8 28 9 2 1 0 -3 -3 -9z m58 -7
c-7 -2 -19 -2 -25 0 -7 3 -2 5 12 5 14 0 19 -2 13 -5z m454 1 c-3 -3 -12 -4
-19 -1 -8 3 -5 6 6 6 11 1 17 -2 13 -5z m-583 -30 c16 -6 12 -24 -5 -24 -6 0
-8 4 -5 9 4 5 0 12 -6 14 -7 3 -10 6 -6 6 3 1 13 -2 22 -5z m512 -21 c-10 -10
-46 -11 -46 -1 0 4 12 8 27 8 14 0 23 -3 19 -7z m-83 -10 c-7 -2 -21 -2 -30 0
-10 3 -4 5 12 5 17 0 24 -2 18 -5z m-503 -13 c10 -1 9 -4 -5 -9 -25 -10 -97
-2 -90 10 5 7 29 7 95 -1z m4333 -20 c14 -16 34 -30 43 -30 14 0 15 -3 6 -12
-9 -9 -15 -9 -24 0 -7 7 -17 8 -28 2 -19 -10 -60 -2 -60 11 0 5 17 9 38 9 l37
0 -32 16 c-18 9 -30 20 -27 25 9 15 21 10 47 -21z m-3853 13 c-8 -3 -23 -10
-32 -15 -11 -5 -18 -5 -18 1 0 10 23 18 50 19 13 0 13 0 0 -5z m65 -3 c-3 -5
-12 -7 -20 -3 -21 7 -19 13 6 13 11 0 18 -4 14 -10z m99 1 c3 -5 -1 -12 -10
-15 -23 -9 -36 -7 -29 3 3 5 -5 12 -17 14 -15 3 -10 5 14 6 20 0 39 -3 42 -8z
m-590 -31 c30 0 37 -3 29 -11 -7 -7 -23 -13 -37 -14 -14 -2 -35 -10 -48 -19
-12 -9 -32 -16 -43 -16 -19 1 -20 1 -1 15 10 8 23 12 27 9 5 -3 9 -1 9 5 0 5
8 12 18 15 11 3 8 5 -8 4 -69 -1 -81 2 -68 15 9 10 22 12 48 6 19 -5 53 -9 74
-9z m13 14 c-3 -3 -12 -4 -19 -1 -8 3 -5 6 6 6 11 1 17 -2 13 -5z m-194 -21
c-7 -2 -19 -2 -25 0 -7 3 -2 5 12 5 14 0 19 -2 13 -5z m4377 -12 c0 -5 -16 -9
-35 -8 -19 1 -35 5 -35 9 0 4 16 8 35 8 19 0 35 -4 35 -9z m203 2 c-7 -2 -19
-2 -25 0 -7 3 -2 5 12 5 14 0 19 -2 13 -5z m-4596 -9 c-3 -3 -12 -4 -19 -1 -8
3 -5 6 6 6 11 1 17 -2 13 -5z m47 0 c8 -3 12 -12 10 -19 -7 -17 -34 -8 -34 11
0 16 2 16 24 8z m202 -9 c-21 -16 -32 -13 -21 4 3 6 14 11 23 11 15 -1 15 -2
-2 -15z m-49 -11 c-3 -4 -2 -15 4 -25 6 -13 6 -19 -1 -19 -5 0 -10 7 -10 15 0
8 -4 15 -10 15 -5 0 -10 5 -10 10 0 6 8 10 17 10 9 0 13 -3 10 -6z m4228 -5
c10 -15 4 -18 -27 -12 -15 3 -25 9 -22 14 7 12 41 11 49 -2z m200 1 c14 -6 2
-9 -42 -9 -36 -1 -63 3 -63 9 0 12 77 12 105 0z m-4475 -20 c-20 -13 -33 -13
-25 0 3 6 14 10 23 10 15 0 15 -2 2 -10z m-28 -18 c9 -9 9 -12 1 -12 -6 0 -14
-8 -16 -17 -3 -13 -5 -11 -6 6 -1 16 -5 21 -16 17 -8 -3 -15 -2 -15 3 0 22 31
24 52 3z m4358 8 c18 -12 2 -12 -25 0 -13 6 -15 9 -5 9 8 0 22 -4 30 -9z
m-4530 -10 c0 -5 -4 -10 -10 -10 -5 0 -10 5 -10 10 0 6 5 10 10 10 6 0 10 -4
10 -10z m110 0 c0 -5 -10 -10 -22 -9 -22 0 -22 1 -3 9 11 5 21 9 23 9 1 1 2
-3 2 -9z m4126 -6 c8 3 11 0 8 -9 -8 -19 30 -37 63 -30 24 5 25 5 10 -5 -11
-7 -29 -9 -45 -4 -15 4 -43 7 -64 8 -33 1 -45 16 -12 16 8 0 14 5 14 10 0 6
-14 9 -32 7 -18 -2 -25 -2 -15 0 9 2 15 9 12 14 -4 5 6 4 21 -1 15 -6 33 -9
40 -6z m238 0 c9 -3 16 -11 16 -16 0 -7 -4 -7 -12 0 -7 5 -22 12 -33 15 -15 3
-16 5 -3 6 9 0 23 -2 32 -5z m-144 -14 c0 -5 -2 -10 -4 -10 -3 0 -8 5 -11 10
-3 6 -1 10 4 10 6 0 11 -4 11 -10z m230 0 c-20 -13 -43 -13 -35 0 3 6 16 10
28 10 18 0 19 -2 7 -10z m-1817 -20 c3 -11 2 -20 -3 -20 -4 0 -10 9 -13 20 -3
11 -2 20 3 20 4 0 10 -9 13 -20z m747 10 c0 -5 -5 -10 -11 -10 -5 0 -7 5 -4
10 3 6 8 10 11 10 2 0 4 -4 4 -10z m-820 -24 c19 -9 26 -13 15 -10 -11 3 -39
9 -62 11 -24 3 -43 9 -43 12 0 12 53 4 90 -13z m1756 1 c1 -9 -2 -17 -7 -17
-5 0 -9 5 -9 10 0 6 -12 10 -27 10 -19 0 -24 3 -15 8 21 14 55 7 58 -11z
m-4206 6 c-8 -3 -18 -10 -21 -16 -4 -5 -17 -6 -30 -1 -24 8 -24 8 6 15 17 4
37 7 45 7 13 0 13 0 0 -5z m2860 -16 c14 -2 0 -3 -30 -2 -68 4 -73 6 -35 14
17 4 32 4 35 0 3 -4 16 -9 30 -12z m207 17 c-3 -3 -12 -4 -19 -1 -8 3 -5 6 6
6 11 1 17 -2 13 -5z m873 -4 c0 -5 7 -10 16 -10 8 0 12 -5 9 -10 -4 -7 -12 -7
-24 0 -10 5 -21 6 -25 2 -4 -3 -4 1 0 11 7 18 24 23 24 7z m-4023 -6 c-3 -3
-12 -4 -19 -1 -8 3 -5 6 6 6 11 1 17 -2 13 -5z m2378 -14 c3 -5 1 -10 -4 -10
-6 0 -11 5 -11 10 0 6 2 10 4 10 3 0 8 -4 11 -10z m70 -19 c-6 -5 -25 10 -25
20 0 5 6 4 14 -3 8 -7 12 -15 11 -17z m45 19 c0 -5 -4 -10 -9 -10 -6 0 -13 5
-16 10 -3 6 1 10 9 10 9 0 16 -4 16 -10z m1595 0 c3 -5 -1 -10 -9 -10 -9 0
-16 5 -16 10 0 6 4 10 9 10 6 0 13 -4 16 -10z m122 4 c-3 -3 -12 -4 -19 -1 -8
3 -5 6 6 6 11 1 17 -2 13 -5z m-1360 -46 c-3 -7 -5 -2 -5 12 0 14 2 19 5 13 2
-7 2 -19 0 -25z m1073 28 c0 -2 -7 -7 -16 -10 -8 -3 -12 -2 -9 4 6 10 25 14
25 6z m267 -2 c-3 -3 -12 -4 -19 -1 -8 3 -5 6 6 6 11 1 17 -2 13 -5z m278 -4
l30 -8 -30 0 c-16 0 -39 3 -50 8 l-20 9 20 -1 c11 0 34 -4 50 -8z m65 6 c0 -2
-7 -7 -16 -10 -8 -3 -12 -2 -9 4 6 10 25 14 25 6z m-2180 -18 c0 7 5 10 10 7
18 -11 10 -25 -15 -25 -18 0 -23 4 -18 16 5 13 7 13 14 2 7 -10 9 -11 9 0z
m617 6 c-3 -3 -12 -4 -19 -1 -8 3 -5 6 6 6 11 1 17 -2 13 -5z m112 -3 c9 -6
10 -11 2 -15 -6 -4 -11 -2 -11 3 0 6 -7 11 -15 11 -8 0 -13 -6 -11 -12 1 -7 1
-10 -1 -5 -3 4 -11 7 -19 7 -9 0 -12 5 -9 10 8 12 45 13 64 1z m476 -1 c3 -5
2 -10 -4 -10 -5 0 -13 5 -16 10 -3 6 -2 10 4 10 5 0 13 -4 16 -10z m800 0 c3
-6 -1 -7 -9 -4 -18 7 -21 14 -7 14 6 0 13 -4 16 -10z m-1848 -6 c-3 -3 -12 -4
-19 -1 -8 3 -5 6 6 6 11 1 17 -2 13 -5z m53 -4 c0 -5 -5 -10 -11 -10 -5 0 -7
5 -4 10 3 6 8 10 11 10 2 0 4 -4 4 -10z m1908 -22 c25 -3 31 -20 10 -26 -9 -2
-8 0 2 7 12 9 10 11 -12 11 -15 0 -30 5 -33 10 -3 6 -14 10 -23 10 -15 0 -15
-2 -2 -10 13 -8 13 -10 -1 -10 -9 0 -22 6 -28 14 -10 12 -7 15 16 18 15 2 33
-2 38 -8 6 -7 21 -14 33 -16z m-201 3 c0 -11 -7 -17 -14 -14 -9 4 -9 8 0 19
16 17 16 17 14 -5z m-1637 -1 c0 -5 -5 -10 -11 -10 -5 0 -7 5 -4 10 3 6 8 10
11 10 2 0 4 -4 4 -10z m-42 -7 c-10 -2 -26 -2 -35 0 -10 3 -2 5 17 5 19 0 27
-2 18 -5z m227 -3 c18 -8 17 -9 -7 -9 -15 -1 -30 4 -33 9 -7 12 12 12 40 0z
m1100 0 c-3 -5 -11 -10 -16 -10 -6 0 -7 5 -4 10 3 6 11 10 16 10 6 0 7 -4 4
-10z m70 -5 c-11 -8 -26 -19 -32 -25 -7 -6 -13 -7 -13 -2 0 11 40 41 55 41 6
0 1 -6 -10 -14z m-1072 -2 c-7 -2 -19 -2 -25 0 -7 3 -2 5 12 5 14 0 19 -2 13
-5z m1127 -3 c0 -5 -4 -10 -9 -10 -5 0 -18 -3 -28 -6 -16 -6 -16 -5 2 9 23 19
35 21 35 7z m48 3 c-10 -2 -18 -9 -18 -14 0 -6 -5 -7 -11 -3 -14 8 8 24 31 23
11 -1 10 -3 -2 -6z m282 -3 c0 -5 -14 -7 -32 -3 -46 8 -48 13 -5 13 21 0 37
-4 37 -10z m-1670 -10 c0 -5 -4 -10 -10 -10 -5 0 -10 5 -10 10 0 6 5 10 10 10
6 0 10 -4 10 -10z m1528 3 c-10 -2 -26 -2 -35 0 -10 3 -2 5 17 5 19 0 27 -2
18 -5z m-111 -9 c-3 -3 -12 -4 -19 -1 -8 3 -5 6 6 6 11 1 17 -2 13 -5z m-47
-38 c0 -4 -7 -5 -16 -2 -9 3 -19 6 -23 6 -4 0 -8 6 -8 13 0 11 6 11 24 3 12
-6 23 -15 23 -20z m90 19 c-10 -12 -9 -15 6 -16 11 0 14 -3 6 -6 -7 -3 -19 1
-28 8 -12 10 -12 14 -2 20 21 14 31 10 18 -6z m130 5 c0 -5 -4 -10 -10 -10 -5
0 -10 5 -10 10 0 6 5 10 10 10 6 0 10 -4 10 -10z m-1717 -7 c-13 -2 -33 -2
-45 0 -13 2 -3 4 22 4 25 0 35 -2 23 -4z m75 0 c-10 -2 -26 -2 -35 0 -10 3 -2
5 17 5 19 0 27 -2 18 -5z m95 0 c-13 -2 -35 -2 -50 0 -16 2 -5 4 22 4 28 0 40
-2 28 -4z m1467 -14 c0 -14 -17 -10 -23 5 -4 10 -1 13 9 9 7 -3 14 -9 14 -14z
m190 11 c-8 -5 -24 -9 -35 -9 l-20 0 20 9 c11 5 27 9 35 9 13 1 13 0 0 -9z
m87 4 c-3 -3 -12 -4 -19 -1 -8 3 -5 6 6 6 11 1 17 -2 13 -5z m-367 -14 c0 -5
-7 -10 -15 -10 -8 0 -15 5 -15 10 0 6 7 10 15 10 8 0 15 -4 15 -10z m-2247
-26 c-3 -8 -6 -14 -7 -12 -1 2 -7 11 -14 20 -11 14 -10 16 7 11 12 -3 17 -11
14 -19z m-46 10 c-3 -3 -12 -4 -19 -1 -8 3 -5 6 6 6 11 1 17 -2 13 -5z m-987
-54 c0 -5 -7 -10 -16 -10 -8 0 -12 5 -9 10 3 6 10 10 16 10 5 0 9 -4 9 -10z
m983 -21 c22 -27 22 -35 -1 -41 -18 -5 -59 27 -60 46 0 5 -6 13 -14 17 -8 5 1
7 22 4 20 -2 43 -14 53 -26z m-993 -11 c0 -4 -7 -8 -15 -8 -8 0 -15 4 -15 8 0
5 7 9 15 9 8 0 15 -4 15 -9z m99 -14 c-6 -7 -15 -11 -21 -8 -5 3 -4 12 3 20 6
7 15 11 21 8 5 -3 4 -12 -3 -20z m4061 16 c0 -5 -2 -10 -4 -10 -3 0 -8 5 -11
10 -3 6 -1 10 4 10 6 0 11 -4 11 -10z m-3802 -329 c-15 -6 -20 7 -12 31 l8 23
6 -25 c3 -14 2 -27 -2 -29z m-28 19 c0 -5 -2 -10 -4 -10 -3 0 -8 5 -11 10 -3
6 -1 10 4 10 6 0 11 -4 11 -10z m107 -27 c-3 -3 -11 -2 -17 2 -9 6 -9 10 1 16
14 8 27 -7 16 -18z m-27 -23 c6 -11 7 -20 2 -20 -6 0 -12 9 -15 20 -3 11 -3
20 -1 20 2 0 8 -9 14 -20z m440 10 c12 -8 9 -10 -13 -10 -16 0 -26 4 -22 10 8
12 16 12 35 0z m-912 -17 c-10 -2 -28 -2 -40 0 -13 2 -5 4 17 4 22 1 32 -1 23
-4z m49 1 c-3 -3 -12 -4 -19 -1 -8 3 -5 6 6 6 11 1 17 -2 13 -5z m120 0 c-3
-3 -12 -4 -19 -1 -8 3 -5 6 6 6 11 1 17 -2 13 -5z m76 -1 c-7 -2 -19 -2 -25 0
-7 3 -2 5 12 5 14 0 19 -2 13 -5z m130 0 c-7 -2 -21 -2 -30 0 -10 3 -4 5 12 5
17 0 24 -2 18 -5z m160 -10 c-7 -2 -21 -2 -30 0 -10 3 -4 5 12 5 17 0 24 -2
18 -5z m625 -20 c-16 -2 -40 -2 -55 0 -16 2 -3 4 27 4 30 0 43 -2 28 -4z m95
0 c-7 -2 -19 -2 -25 0 -7 3 -2 5 12 5 14 0 19 -2 13 -5z m150 0 c-7 -2 -19 -2
-25 0 -7 3 -2 5 12 5 14 0 19 -2 13 -5z m-1020 -10 c-7 -2 -19 -2 -25 0 -7 3
-2 5 12 5 14 0 19 -2 13 -5z"/>
<path d="M4288 683 c7 -3 16 -2 19 1 4 3 -2 6 -13 5 -11 0 -14 -3 -6 -6z"/>
<path d="M1980 430 c0 -5 5 -10 11 -10 5 0 7 5 4 10 -3 6 -8 10 -11 10 -2 0
-4 -4 -4 -10z"/>
<path d="M2015 409 c-4 -6 -5 -12 -2 -15 2 -3 7 2 10 11 7 17 1 20 -8 4z"/>
<path d="M1798 2313 c46 -2 118 -2 160 0 42 1 5 3 -83 3 -88 0 -123 -2 -77 -3z"/>
<path d="M1633 2303 c15 -2 37 -2 50 0 12 2 0 4 -28 4 -27 0 -38 -2 -22 -4z"/>
<path d="M3200 2220 c-107 -3 -190 -7 -185 -10 6 -3 181 0 390 6 252 7 314 10
185 10 -107 0 -283 -3 -390 -6z"/>
<path d="M2325 2199 l-240 -6 297 1 c163 1 294 4 291 9 -2 4 -28 6 -56 5 -29
-1 -160 -5 -292 -9z"/>
<path d="M1713 2183 c48 -2 125 -2 170 0 45 1 6 3 -88 3 -93 0 -130 -2 -82 -3z"/>
<path d="M3901 2147 c-11 -19 -21 -42 -21 -52 0 -10 11 4 25 30 30 56 27 72
-4 22z"/>
<path d="M3190 2090 c-96 -4 -8 -5 195 -2 204 2 372 6 374 8 6 5 -353 1 -569
-6z"/>
<path d="M2200 2070 l-255 -6 270 0 c149 1 315 3 370 6 l100 6 -115 0 c-63 0
-230 -3 -370 -6z"/>
<path d="M3423 1963 c26 -2 68 -2 95 0 26 2 4 3 -48 3 -52 0 -74 -1 -47 -3z"/>
<path d="M3103 1953 c48 -2 126 -2 175 0 48 1 8 3 -88 3 -96 0 -136 -2 -87 -3z"/>
<path d="M1638 1923 c7 -3 16 -2 19 1 4 3 -2 6 -13 5 -11 0 -14 -3 -6 -6z"/>
<path d="M3550 1913 c-44 -7 -220 -65 -226 -74 -8 -14 7 -11 87 17 55 20 101
28 183 31 73 4 107 2 103 -5 -4 -5 1 -16 11 -23 16 -13 16 -13 2 5 -14 18 -13
19 4 13 16 -6 17 -5 6 8 -23 28 -97 40 -170 28z"/>
<path d="M3746 1845 c4 -16 12 -39 17 -50 10 -17 12 -18 15 -3 2 9 16 21 33
27 40 14 37 22 -7 19 -26 -2 -40 3 -51 17 -13 19 -14 18 -7 -10z"/>
<path d="M2730 1820 c-24 -5 -4 -8 68 -9 62 0 102 3 102 9 0 11 -116 11 -170
0z"/>
<path d="M3058 1823 c23 -2 61 -2 85 0 23 2 4 4 -43 4 -47 0 -66 -2 -42 -4z"/>
<path d="M723 1793 c15 -2 39 -2 55 0 15 2 2 4 -28 4 -30 0 -43 -2 -27 -4z"/>
<path d="M167 1783 c94 -2 252 -2 350 0 98 1 21 2 -172 2 -192 1 -273 -1 -178
-2z"/>
<path d="M2950 1783 c-26 -2 -50 -11 -57 -20 -8 -10 -13 -12 -13 -5 0 7 -4 12
-10 12 -5 0 -10 -7 -10 -15 0 -14 21 -21 45 -15 6 2 26 4 46 5 44 4 82 22 74
36 -4 5 -12 8 -18 7 -7 -1 -32 -3 -57 -5z"/>
<path d="M2656 1713 c-6 -14 -5 -15 5 -6 7 7 10 15 7 18 -3 3 -9 -2 -12 -12z"/>
<path d="M855 1649 c-4 -6 -5 -13 -2 -16 7 -7 27 6 27 18 0 12 -17 12 -25 -2z"/>
<path d="M3035 1605 c4 -16 12 -33 18 -37 20 -12 19 -1 -3 33 l-22 34 7 -30z"/>
<path d="M4575 1589 c-214 -3 -468 -7 -564 -8 -96 0 -172 -4 -169 -7 10 -9
1378 8 1378 18 0 4 -57 7 -127 6 -71 -1 -303 -5 -518 -9z"/>
<path d="M3011 1554 c0 -11 3 -14 6 -6 3 7 2 16 -1 19 -3 4 -6 -2 -5 -13z"/>
<path d="M4560 1459 c-702 -9 -847 -14 -469 -17 385 -3 1129 10 1129 20 0 4
-8 7 -17 6 -10 -1 -299 -5 -643 -9z"/>
<path d="M4040 1320 c-157 -4 -108 -6 205 -6 226 -1 538 2 695 5 255 7 234 7
-205 7 -269 0 -582 -3 -695 -6z"/>
<path d="M4010 1190 c-85 -3 152 -7 528 -8 449 -1 682 1 682 8 0 11 -924 11
-1210 0z"/>
<path d="M3360 1119 c0 -5 5 -7 10 -4 6 3 10 8 10 11 0 2 -4 4 -10 4 -5 0 -10
-5 -10 -11z"/>
<path d="M4028 1003 c7 -3 16 -2 19 1 4 3 -2 6 -13 5 -11 0 -14 -3 -6 -6z"/>
<path d="M4188 1003 c7 -3 16 -2 19 1 4 3 -2 6 -13 5 -11 0 -14 -3 -6 -6z"/>
<path d="M1630 969 c0 -7 -9 -9 -21 -6 -15 4 -19 2 -15 -10 3 -8 6 -18 6 -22
0 -4 9 -7 20 -8 13 -1 20 4 20 15 0 15 2 15 10 2 7 -10 12 -12 18 -4 4 6 14
14 22 17 12 4 11 6 -2 6 -10 1 -18 6 -18 11 0 6 -9 10 -20 10 -11 0 -20 -5
-20 -11z"/>
<path d="M3945 970 c3 -5 8 -10 11 -10 2 0 4 5 4 10 0 6 -5 10 -11 10 -5 0 -7
-4 -4 -10z"/>
<path d="M4038 973 c7 -3 16 -2 19 1 4 3 -2 6 -13 5 -11 0 -14 -3 -6 -6z"/>
<path d="M4110 970 c0 -13 11 -13 30 0 12 8 11 10 -7 10 -13 0 -23 -4 -23 -10z"/>
<path d="M1790 955 c0 -9 -6 -12 -15 -9 -10 4 -15 0 -15 -10 0 -23 30 -33 44
-14 7 9 24 13 46 12 34 -3 35 -3 8 7 -16 6 -28 15 -28 20 0 5 -9 9 -20 9 -11
0 -20 -7 -20 -15z"/>
<path d="M4234 951 c0 -11 5 -17 13 -14 10 4 11 9 2 19 -15 18 -15 18 -15 -5z"/>
<path d="M1720 950 c-12 -8 -10 -10 8 -10 13 0 20 4 17 10 -7 12 -6 12 -25 0z"/>
<path d="M1920 950 c0 -6 7 -13 15 -16 24 -10 17 -42 -12 -58 -18 -10 -22 -15
-12 -16 26 0 58 32 64 65 4 24 3 26 -4 10 -10 -20 -10 -19 -17 3 -6 22 -34 32
-34 12z"/>
<path d="M3970 956 c0 -2 7 -7 16 -10 8 -3 12 -2 9 4 -6 10 -25 14 -25 6z"/>
<path d="M4140 941 c0 -5 7 -12 16 -15 24 -9 27 -7 10 9 -17 17 -26 19 -26 6z"/>
<path d="M4320 943 c0 -11 43 -42 51 -37 14 8 11 11 -21 28 -16 8 -30 12 -30
9z"/>
<path d="M1890 915 c0 -10 7 -15 18 -13 21 4 19 22 -2 26 -10 2 -16 -3 -16
-13z"/>
<path d="M4065 910 c3 -5 8 -10 11 -10 2 0 4 5 4 10 0 6 -5 10 -11 10 -5 0 -7
-4 -4 -10z"/>
<path d="M4225 910 c3 -5 8 -10 11 -10 2 0 4 5 4 10 0 6 -5 10 -11 10 -5 0 -7
-4 -4 -10z"/>
<path d="M4250 910 c0 -5 5 -10 10 -10 6 0 10 5 10 10 0 6 -4 10 -10 10 -5 0
-10 -4 -10 -10z"/>
<path d="M4028 893 c6 -2 18 -2 25 0 6 3 1 5 -13 5 -14 0 -19 -2 -12 -5z"/>
<path d="M4269 889 c-10 -6 -4 -9 19 -9 17 0 32 2 32 4 0 9 -39 13 -51 5z"/>
<path d="M1885 879 c-11 -16 -1 -19 13 -3 7 8 8 14 3 14 -5 0 -13 -5 -16 -11z"/>
<path d="M4213 883 c9 -2 23 -2 30 0 6 3 -1 5 -18 5 -16 0 -22 -2 -12 -5z"/>
<path d="M3555 870 c4 -6 11 -8 16 -5 14 9 11 15 -7 15 -8 0 -12 -5 -9 -10z"/>
<path d="M4110 870 c-8 -5 -10 -10 -5 -10 6 0 17 5 25 10 8 5 11 10 5 10 -5 0
-17 -5 -25 -10z"/>
<path d="M4275 860 c3 -5 8 -10 11 -10 2 0 4 5 4 10 0 6 -5 10 -11 10 -5 0 -7
-4 -4 -10z"/>
<path d="M4313 862 c-8 -5 -9 -13 -3 -22 7 -12 10 -12 16 3 8 21 3 29 -13 19z"/>
<path d="M4025 840 c-3 -5 3 -10 15 -10 12 0 18 5 15 10 -3 6 -10 10 -15 10
-5 0 -12 -4 -15 -10z"/>
<path d="M4220 830 c-29 -9 -27 -11 15 -15 17 -2 24 -1 17 2 -6 3 -10 9 -6 14
3 5 4 9 2 8 -2 -1 -14 -5 -28 -9z"/>
<path d="M4033 803 c9 -2 23 -2 30 0 6 3 -1 5 -18 5 -16 0 -22 -2 -12 -5z"/>
<path d="M4168 803 c6 -2 18 -2 25 0 6 3 1 5 -13 5 -14 0 -19 -2 -12 -5z"/>
<path d="M762 783 c2 -10 14 -20 27 -21 19 -3 22 0 17 13 -3 9 -6 19 -6 21 0
2 -9 4 -21 4 -14 0 -19 -5 -17 -17z"/>
<path d="M876 783 c-6 -14 -5 -15 5 -6 7 7 10 15 7 18 -3 3 -9 -2 -12 -12z"/>
<path d="M598 784 c23 -11 12 -21 -19 -16 -21 3 -30 1 -25 -6 3 -6 2 -13 -4
-17 -5 -3 -10 -1 -10 5 0 6 -5 8 -11 4 -8 -4 -8 -9 0 -17 9 -9 17 -8 31 1 11
6 35 12 54 12 27 0 34 4 32 18 -2 11 -13 18 -32 19 -16 1 -23 0 -16 -3z"/>
<path d="M2125 780 c4 -6 11 -8 16 -5 14 9 11 15 -7 15 -8 0 -12 -5 -9 -10z"/>
<path d="M830 760 c-8 -5 -12 -12 -9 -15 8 -8 39 5 39 16 0 11 -11 11 -30 -1z"/>
<path d="M3088 753 c7 -3 16 -2 19 1 4 3 -2 6 -13 5 -11 0 -14 -3 -6 -6z"/>
<path d="M3230 751 c0 -4 11 -6 25 -3 14 2 25 6 25 8 0 2 -11 4 -25 4 -14 0
-25 -4 -25 -9z"/>
<path d="M3710 748 c0 -10 4 -18 10 -18 5 0 7 -7 4 -15 -4 -10 0 -15 10 -15
17 0 15 9 -14 50 -8 13 -10 13 -10 -2z"/>
<path d="M4030 739 c0 -10 3 -19 8 -20 4 0 19 -3 34 -5 14 -2 29 0 33 6 4 6
-7 10 -27 10 -22 0 -29 3 -20 9 10 6 9 10 -7 14 -16 4 -21 0 -21 -14z"/>
<path d="M774 725 c30 -27 32 -28 61 -14 18 8 18 9 -4 5 -23 -5 -56 16 -44 28
4 3 -4 6 -17 6 l-23 0 27 -25z"/>
<path d="M3398 743 c6 -2 18 -2 25 0 6 3 1 5 -13 5 -14 0 -19 -2 -12 -5z"/>
<path d="M3636 734 c-19 -14 -19 -14 2 -14 12 0 22 -4 22 -8 0 -5 6 -9 13 -9
7 0 13 8 13 18 0 10 -2 16 -5 14 -2 -3 -9 -1 -15 4 -7 6 -18 4 -30 -5z"/>
<path d="M580 730 c0 -5 5 -10 10 -10 6 0 10 5 10 10 0 6 -4 10 -10 10 -5 0
-10 -4 -10 -10z"/>
<path d="M2785 730 c-16 -7 -17 -9 -3 -9 9 -1 20 4 23 9 7 11 7 11 -20 0z"/>
<path d="M3517 729 c7 -7 15 -10 18 -7 3 3 -2 9 -12 12 -14 6 -15 5 -6 -5z"/>
<path d="M660 716 l25 -14 -27 -11 c-16 -6 -28 -13 -28 -15 0 -6 62 14 76 25
6 5 13 6 17 3 3 -3 14 -1 24 5 15 9 10 11 -27 10 -25 -1 -54 2 -65 5 -13 5
-11 2 5 -8z"/>
<path d="M927 719 c-32 -5 -67 -15 -79 -23 -11 -8 -27 -12 -35 -9 -8 3 -19 0
-23 -7 -7 -11 -11 -11 -23 -1 -10 8 -17 9 -22 1 -3 -5 0 -10 7 -10 10 0 9 -3
-2 -11 -12 -8 -11 -9 5 -6 11 3 37 8 58 12 l37 6 1 -68 c1 -37 4 -58 6 -45 2
12 9 20 14 17 5 -4 9 -1 9 4 0 6 -3 11 -7 11 -5 0 -8 14 -9 30 -1 17 3 30 7
30 5 0 8 -3 8 -7 -4 -23 2 -43 11 -38 6 4 10 -5 10 -20 0 -16 4 -24 11 -20 5
4 8 12 6 18 -2 7 2 27 10 44 13 31 12 33 -11 39 -14 3 -29 3 -35 0 -5 -4 -12
-2 -16 3 -3 6 12 8 39 6 30 -2 46 1 49 9 4 10 -6 13 -41 10 -40 -3 -42 -2 -17
5 44 12 97 13 90 1 -8 -13 25 -13 45 0 12 8 10 10 -8 10 -13 0 -20 4 -17 10 7
11 4 11 -78 -1z"/>
<path d="M2888 723 c7 -3 16 -2 19 1 4 3 -2 6 -13 5 -11 0 -14 -3 -6 -6z"/>
<path d="M515 710 c-7 -11 0 -13 28 -11 9 1 17 -3 17 -8 0 -6 -5 -11 -12 -11
-6 0 -9 -2 -7 -5 3 -2 15 -2 27 1 17 5 19 9 9 19 -19 18 -54 27 -62 15z"/>
<path d="M613 703 c9 -2 23 -2 30 0 6 3 -1 5 -18 5 -16 0 -22 -2 -12 -5z"/>
<path d="M3245 700 c3 -5 10 -10 16 -10 5 0 9 5 9 10 0 6 -7 10 -16 10 -8 0
-12 -4 -9 -10z"/>
<path d="M3490 690 c0 -5 7 -10 15 -10 8 0 15 5 15 10 0 6 -7 10 -15 10 -8 0
-15 -4 -15 -10z"/>
<path d="M673 673 c-13 -2 -23 -8 -23 -13 0 -4 -22 -11 -50 -15 -27 -4 -52
-10 -55 -15 -2 -4 -17 -5 -32 -2 -16 2 -25 2 -21 -2 10 -12 99 -15 92 -4 -4 6
2 8 15 3 14 -4 31 1 50 14 16 12 39 25 52 30 25 10 11 12 -28 4z"/>
<path d="M978 673 c12 -2 32 -2 45 0 12 2 2 4 -23 4 -25 0 -35 -2 -22 -4z"/>
<path d="M540 654 l-25 -15 30 6 c17 4 34 11 40 16 15 15 -17 10 -45 -7z"/>
<path d="M470 651 c0 -6 -6 -8 -14 -5 -8 3 -23 1 -33 -5 -15 -9 -12 -10 19
-11 37 0 57 13 38 25 -5 3 -10 2 -10 -4z"/>
<path d="M293 627 c-18 -20 -17 -20 7 -12 14 4 40 9 58 10 18 2 36 6 39 9 6 6
1 7 -59 11 -17 1 -34 -6 -45 -18z"/>
<path d="M645 620 c-3 -6 1 -7 9 -4 18 7 21 14 7 14 -6 0 -13 -4 -16 -10z"/>
<path d="M430 610 c0 -5 7 -7 15 -4 8 4 15 8 15 10 0 2 -7 4 -15 4 -8 0 -15
-4 -15 -10z"/>
<path d="M220 600 c-8 -5 -11 -12 -7 -16 4 -4 13 -2 19 4 15 15 7 24 -12 12z"/>
<path d="M241 584 c-10 -23 -10 -26 4 -20 9 3 24 6 33 7 11 0 12 2 5 6 -7 2
-13 11 -13 19 0 23 -16 16 -29 -12z"/>
<path d="M328 603 c7 -3 16 -2 19 1 4 3 -2 6 -13 5 -11 0 -14 -3 -6 -6z"/>
<path d="M457 593 c-13 -13 -7 -21 13 -16 11 3 17 9 14 14 -6 11 -18 12 -27 2z"/>
<path d="M588 579 c-10 -10 -15 -19 -10 -19 10 1 42 26 42 34 0 11 -15 5 -32
-15z"/>
<path d="M643 593 c-18 -7 -16 -23 3 -23 8 0 13 4 10 9 -4 5 0 12 6 14 7 3 9
5 3 5 -5 0 -16 -2 -22 -5z"/>
<path d="M800 589 c0 -5 5 -7 10 -4 6 3 10 8 10 11 0 2 -4 4 -10 4 -5 0 -10
-5 -10 -11z"/>
<path d="M166 568 c4 -17 2 -28 -5 -28 -17 0 -33 -37 -19 -46 7 -4 8 -3 4 5
-6 8 -1 10 16 6 25 -6 57 9 45 21 -4 4 -13 2 -19 -4 -20 -20 -32 -13 -13 8 10
11 24 20 32 20 8 0 11 5 8 10 -3 6 -15 10 -25 10 -10 0 -21 6 -24 13 -3 6 -3
0 0 -15z"/>
<path d="M35 570 c5 -9 2 -10 -12 -6 -17 5 -20 2 -20 -19 0 -25 20 -34 32 -15
4 6 23 8 43 5 28 -4 32 -3 17 4 -16 8 -11 10 24 10 58 1 47 11 -19 17 -28 2
-56 7 -62 10 -7 5 -8 2 -3 -6z"/>
<path d="M300 567 c0 -7 -9 -18 -21 -25 -12 -7 -18 -16 -15 -19 3 -3 13 0 22
7 13 12 17 11 26 -1 8 -12 9 -11 5 2 -3 9 -1 21 4 26 7 7 5 12 -5 16 -9 4 -16
1 -16 -6z"/>
<path d="M415 570 c3 -5 10 -10 16 -10 5 0 9 5 9 10 0 6 -7 10 -16 10 -8 0
-12 -4 -9 -10z"/>
<path d="M688 573 c7 -3 16 -2 19 1 4 3 -2 6 -13 5 -11 0 -14 -3 -6 -6z"/>
<path d="M746 566 c-26 -12 -27 -13 -8 -18 13 -4 27 1 38 13 20 22 11 23 -30
5z"/>
<path d="M380 550 c-8 -5 -12 -11 -10 -14 3 -2 14 2 24 10 22 15 10 19 -14 4z"/>
<path d="M403 528 c-44 -36 -71 -49 -78 -38 -3 6 0 10 7 11 7 0 0 5 -17 10
-18 5 -33 5 -39 -1 -7 -7 -2 -10 12 -10 18 0 22 -5 19 -22 -2 -13 -2 -17 0 -9
3 8 8 10 12 4 3 -6 17 -13 31 -17 14 -3 19 -3 12 0 -10 5 -9 10 4 25 18 20 40
27 29 9 -9 -14 -2 -13 31 6 l29 16 -30 -6 c-31 -7 -28 -1 22 31 16 10 16 12 1
12 -9 1 -29 -9 -45 -21z"/>
<path d="M483 543 c9 -2 23 -2 30 0 6 3 -1 5 -18 5 -16 0 -22 -2 -12 -5z"/>
<path d="M572 539 c-13 -5 -20 -14 -16 -20 4 -8 9 -7 15 2 5 8 9 10 9 5 0 -5
7 -3 15 4 10 9 15 9 15 1 0 -6 8 -11 17 -11 15 0 14 2 -3 15 -22 17 -22 17
-52 4z"/>
<path d="M765 520 c4 -6 11 -8 16 -5 14 9 11 15 -7 15 -8 0 -12 -5 -9 -10z"/>
<path d="M728 503 c6 -2 18 -2 25 0 6 3 1 5 -13 5 -14 0 -19 -2 -12 -5z"/>
<path d="M15 490 c3 -5 -1 -11 -7 -13 -7 -3 5 -3 26 0 28 5 37 3 32 -5 -4 -7
-18 -12 -31 -12 -13 0 -27 -4 -30 -10 -10 -16 59 2 72 19 6 9 10 18 7 20 -8 8
-74 9 -69 1z"/>
<path d="M840 467 c0 -20 4 -37 10 -37 5 0 7 14 3 33 -8 45 -13 47 -13 4z"/>
<path d="M860 469 c0 -5 9 -9 20 -9 11 0 20 2 20 4 0 2 -9 6 -20 9 -11 3 -20
1 -20 -4z"/>
<path d="M102 458 c5 -15 28 -23 28 -10 0 5 -7 13 -16 16 -10 4 -14 1 -12 -6z"/>
<path d="M160 459 c0 -5 5 -7 10 -4 6 3 10 8 10 11 0 2 -4 4 -10 4 -5 0 -10
-5 -10 -11z"/>
<path d="M205 460 c4 -6 11 -8 16 -5 14 9 11 15 -7 15 -8 0 -12 -5 -9 -10z"/>
<path d="M680 451 c0 -5 -8 -12 -17 -14 -14 -4 -14 -5 3 -6 12 0 27 6 34 14
10 12 10 15 -4 15 -9 0 -16 -4 -16 -9z"/>
<path d="M475 440 c-4 -6 -16 -8 -27 -4 -14 4 -18 2 -14 -5 9 -13 46 -15 46
-2 0 5 12 12 28 14 l27 4 -27 2 c-15 0 -30 -4 -33 -9z"/>
<path d="M1290 442 c0 -5 -7 -17 -15 -28 -14 -18 -14 -18 -8 4 4 15 1 22 -10
22 -8 0 -17 -10 -21 -22 -11 -44 -8 -51 24 -46 17 3 30 1 30 -4 0 -18 17 -7
29 18 6 15 15 24 18 20 4 -3 1 -12 -5 -18 -16 -16 -15 -28 3 -28 8 0 15 6 15
14 0 8 5 18 11 22 7 4 9 0 5 -14 -4 -11 -2 -23 4 -27 5 -3 10 0 10 7 0 10 2
10 8 1 4 -7 28 -13 52 -14 59 -3 73 -12 30 -20 l-35 -6 38 -2 c20 0 37 4 37 9
0 6 6 10 14 10 14 0 26 21 26 46 0 22 -36 16 -54 -8 -15 -22 -15 -21 -2 15 12
28 12 37 2 37 -6 0 -18 -16 -25 -36 -7 -19 -15 -33 -18 -31 -2 3 0 15 7 26 9
17 8 21 -5 21 -8 0 -15 -6 -15 -14 0 -8 -5 -18 -12 -22 -8 -5 -9 -2 -5 10 12
29 -5 41 -20 15 -8 -13 -12 -16 -9 -6 6 19 -1 23 -49 31 -17 3 -33 0 -38 -7
-5 -7 -6 -3 -2 11 4 13 2 22 -4 22 -6 0 -11 -4 -11 -8z m235 -82 c-3 -5 -11
-10 -16 -10 -6 0 -7 5 -4 10 3 6 11 10 16 10 6 0 7 -4 4 -10z"/>
<path d="M250 429 c0 -5 -4 -7 -10 -4 -5 3 -10 -1 -10 -10 0 -14 2 -14 25 1
29 19 31 24 10 24 -8 0 -15 -5 -15 -11z"/>
<path d="M752 419 c-12 -18 -11 -19 5 -10 44 25 49 31 28 31 -11 0 -26 -9 -33
-21z"/>
<path d="M145 420 c-3 -5 -25 -11 -48 -11 -23 -1 -32 -4 -19 -6 12 -2 22 -11
22 -19 0 -8 5 -12 10 -9 6 4 8 10 5 15 -3 4 18 11 46 15 35 5 47 10 38 16 -19
12 -46 11 -54 -1z"/>
<path d="M290 415 c0 -8 -7 -15 -15 -15 -8 0 -15 -4 -15 -10 0 -16 40 -12 46
5 4 8 17 15 30 15 38 0 28 16 -11 18 -26 2 -35 -1 -35 -13z"/>
<path d="M508 405 c-26 -14 -49 -29 -53 -35 -8 -13 1 -13 27 1 14 8 23 8 31 0
6 -6 20 -11 32 -10 20 1 18 2 -25 15 -10 4 -6 11 15 29 38 30 32 30 -27 0z"/>
<path d="M631 409 c-60 -12 -63 -19 -8 -17 29 0 48 6 51 14 3 8 4 14 3 13 -1
-1 -22 -5 -46 -10z"/>
<path d="M1561 379 c-13 -36 -7 -49 19 -49 20 0 57 67 44 79 -4 3 -9 0 -11 -6
-3 -7 -9 -13 -14 -13 -6 0 -7 5 -4 10 3 6 0 10 -8 10 -8 0 -20 -14 -26 -31z
m37 -11 c-2 -6 -10 -14 -16 -16 -7 -2 -10 2 -6 12 7 18 28 22 22 4z"/>
<path d="M333 383 c9 -2 23 -2 30 0 6 3 -1 5 -18 5 -16 0 -22 -2 -12 -5z"/>
<path d="M420 380 c0 -5 5 -10 11 -10 5 0 7 5 4 10 -3 6 -8 10 -11 10 -2 0 -4
-4 -4 -10z"/>
<path d="M695 380 l-30 -7 38 -8 c41 -8 55 -4 35 12 -7 5 -26 6 -43 3z"/>
<path d="M1632 378 c-17 -17 -15 -48 5 -55 23 -9 58 34 42 53 -14 17 -31 18
-47 2z m38 -17 c0 -12 -26 -32 -33 -25 -9 10 4 34 19 34 8 0 14 -4 14 -9z"/>
<path d="M48 373 c-10 -2 -18 -9 -18 -14 0 -15 36 -10 50 6 13 16 5 18 -32 8z"/>
<path d="M600 370 c-11 -8 -7 -10 17 -8 17 1 29 6 27 10 -7 11 -26 10 -44 -2z"/>
<path d="M1693 350 c-7 -19 -8 -30 -1 -30 5 0 12 9 15 20 8 31 24 24 17 -7
l-5 -28 21 24 c25 29 22 45 -11 49 -19 2 -27 -4 -36 -28z"/>
<path d="M783 363 c9 -2 23 -2 30 0 6 3 -1 5 -18 5 -16 0 -22 -2 -12 -5z"/>
<path d="M1953 349 c-2 -23 3 -25 10 -4 4 8 3 16 -1 19 -4 3 -9 -4 -9 -15z"/>
<path d="M73 346 c-13 -6 -23 -14 -23 -19 0 -4 -11 -12 -25 -17 -19 -7 -25
-17 -25 -40 l0 -31 33 17 c31 16 50 35 42 42 -2 2 -13 -1 -24 -8 -14 -7 -21
-7 -21 0 0 5 5 10 12 10 6 0 19 7 29 16 10 9 35 22 56 30 l38 13 -35 -1 c-19
0 -45 -5 -57 -12z"/>
<path d="M253 353 c-7 -2 -13 -14 -13 -26 0 -13 3 -17 8 -11 4 6 21 18 37 27
29 16 29 16 5 16 -14 0 -31 -3 -37 -6z"/>
<path d="M1346 352 c-4 -3 -27 -7 -51 -7 -53 -1 -68 -11 -28 -18 35 -7 141 -2
150 7 3 3 -1 7 -10 7 -25 2 -31 4 -43 11 -6 4 -14 4 -18 0z"/>
<path d="M1085 340 c3 -5 8 -10 11 -10 2 0 4 5 4 10 0 6 -5 10 -11 10 -5 0 -7
-4 -4 -10z"/>
<path d="M1165 340 c-4 -6 3 -10 14 -10 25 0 27 6 6 13 -8 4 -17 2 -20 -3z"/>
<path d="M5 330 c-8 -13 5 -13 25 0 13 8 13 10 -2 10 -9 0 -20 -4 -23 -10z"/>
<path d="M180 330 c0 -5 -7 -10 -15 -10 -8 0 -15 -4 -15 -10 0 -10 18 -5 60
17 l25 13 -27 0 c-16 0 -28 -4 -28 -10z"/>
<path d="M447 307 c-27 -17 -43 -33 -37 -35 6 -2 19 3 29 12 10 9 22 16 28 16
5 0 18 9 28 20 26 29 7 24 -48 -13z"/>
<path d="M118 323 c7 -3 16 -2 19 1 4 3 -2 6 -13 5 -11 0 -14 -3 -6 -6z"/>
<path d="M580 320 c-8 -5 -10 -10 -5 -10 6 0 17 5 25 10 8 5 11 10 5 10 -5 0
-17 -5 -25 -10z"/>
<path d="M625 320 c-3 -5 -2 -10 4 -10 5 0 13 5 16 10 3 6 2 10 -4 10 -5 0
-13 -4 -16 -10z"/>
<path d="M1598 313 c7 -3 16 -2 19 1 4 3 -2 6 -13 5 -11 0 -14 -3 -6 -6z"/>
<path d="M90 299 c0 -5 5 -7 10 -4 6 3 10 8 10 11 0 2 -4 4 -10 4 -5 0 -10 -5
-10 -11z"/>
<path d="M1638 303 c6 -2 18 -2 25 0 6 3 1 5 -13 5 -14 0 -19 -2 -12 -5z"/>
<path d="M142 274 c-23 -14 -47 -22 -54 -18 -7 4 -8 3 -4 -4 4 -7 2 -12 -3
-12 -6 0 -11 -7 -11 -15 0 -18 -12 -19 -28 -3 -9 9 -12 9 -12 0 0 -6 -7 -9
-15 -6 -8 4 -15 1 -15 -5 0 -6 17 -12 38 -12 l37 -2 -40 -7 c-43 -8 -23 -14
37 -11 20 1 39 -3 43 -9 4 -6 -7 -10 -30 -10 -23 0 -34 -4 -30 -10 4 -6 15 -8
25 -5 10 3 21 1 25 -5 3 -5 16 -10 28 -9 12 0 16 3 9 6 -10 4 -9 8 5 19 21 16
163 20 163 4 0 -8 43 15 89 47 2 2 1 6 -2 9 -4 4 -13 1 -22 -6 -8 -7 -15 -9
-15 -5 0 4 -6 3 -13 -3 -7 -6 -46 -13 -87 -16 -73 -5 -74 -5 -47 13 15 10 24
20 21 24 -4 4 -21 -4 -38 -16 -17 -12 -37 -20 -44 -19 -8 2 -11 -1 -7 -7 10
-17 -21 -13 -35 4 -10 12 -9 15 4 15 9 0 19 7 22 15 9 22 35 19 28 -2 -5 -15
-4 -15 4 -3 6 8 8 18 6 22 -3 5 2 11 10 14 9 3 13 10 10 16 -3 5 -14 2 -24 -7
-11 -10 -24 -15 -30 -13 -7 2 4 12 24 23 20 11 36 23 36 27 0 13 -13 9 -58
-18z m-32 -54 c-8 -5 -19 -10 -25 -10 -5 0 -3 5 5 10 8 5 20 10 25 10 6 0 3
-5 -5 -10z"/>
<path d="M1763 293 c9 -2 25 -2 35 0 9 3 1 5 -18 5 -19 0 -27 -2 -17 -5z"/>
<path d="M354 242 c-5 -8 -22 -14 -37 -14 -15 0 -30 -5 -33 -10 -9 -14 72 -2
96 15 20 14 20 15 2 19 -10 3 -23 -1 -28 -10z"/>
<path d="M593 239 c-18 -12 -33 -25 -33 -30 0 -5 16 1 35 13 19 13 35 26 35
31 0 10 -1 9 -37 -14z"/>
<path d="M452 209 c-7 -10 -19 -19 -27 -19 -8 0 -15 -2 -15 -4 0 -2 -3 -12 -6
-21 -5 -12 1 -11 29 7 37 24 52 44 39 52 -5 3 -13 -4 -20 -15z"/>
<path d="M410 139 c-19 -4 -39 -5 -44 -2 -5 4 -6 1 -1 -6 5 -9 21 -11 52 -6
31 4 43 3 39 -4 -4 -7 -1 -8 8 -5 43 16 0 34 -54 23z"/>
<path d="M80 130 c0 -5 5 -10 10 -10 6 0 10 5 10 10 0 6 -4 10 -10 10 -5 0
-10 -4 -10 -10z"/>
<path d="M160 132 c0 -10 157 -9 167 1 3 4 -33 7 -80 7 -48 0 -87 -4 -87 -8z"/>
<path d="M1 104 c0 -11 3 -14 6 -6 3 7 2 16 -1 19 -3 4 -6 -2 -5 -13z"/>
<path d="M30 100 c0 -5 4 -10 9 -10 6 0 13 5 16 10 3 6 -1 10 -9 10 -9 0 -16
-4 -16 -10z"/>
<path d="M100 95 c0 -19 -39 -35 -70 -29 -23 5 -30 3 -30 -9 0 -10 7 -14 23
-10 l22 5 -24 -21 c-13 -12 -21 -25 -17 -28 4 -4 10 -3 14 3 4 5 37 29 75 53
37 24 67 44 67 46 0 1 -13 2 -30 1 -16 -1 -30 -6 -30 -11z"/>
<path d="M208 77 c-48 -13 -50 -28 -3 -17 19 4 37 4 40 0 3 -5 15 -6 28 -2 20
5 21 4 7 -14 -13 -17 -13 -18 1 -7 9 7 50 13 98 14 46 1 78 5 71 9 -6 4 -41 6
-76 4 -36 -3 -64 0 -64 5 0 5 8 12 18 14 9 3 0 5 -20 6 -20 0 -40 -3 -43 -9
-3 -5 -11 -10 -16 -10 -6 0 -7 5 -4 10 3 6 5 9 3 9 -2 -1 -20 -6 -40 -12z"/>
<path d="M278 3 c12 -2 30 -2 40 0 9 3 -1 5 -23 4 -22 0 -30 -2 -17 -4z"/>
</g>
</svg>
